# xmcd CD database file
#
# Track frame offsets:
#	150
#	23821
#	48368
#	70258
#	96113
#	127292
#	150173
#	169503
#	196318
#	214390
#	239012
#
# Disc length: 3427 seconds
#
# Revision: 3
# Processed by: cddbd v1.5.2PL0 Copyright (c) Steve Scherf et al.
# Submitted via: jetAudio 7
#
DISCID=970d610b
DTITLE=Paul Schwartz - State of Grace II - Turning to Peace
DYEAR=2003
DGENRE=New Age
TTITLE0=Magnificat
TTITLE1=Turning to Peace
TTITLE2=Curación (Sunlight on Water)
TTITLE3=Stabat Mater
TTITLE4=Quia Respexit
TTITLE5=Fear Not
TTITLE6=Et Misericordia
TTITLE7=Suscepit Israel
TTITLE8=Ave Maria
TTITLE9=Gloria
TTITLE10=Let Me
EXTD=YEAR: 2003
EXTT0=
EXTT1=
EXTT2=
EXTT3=
EXTT4=
EXTT5=
EXTT6=
EXTT7=
EXTT8=
EXTT9=
EXTT10=
PLAYORDER=
